# xmcd CD database file
#
# Track frame offsets:
#	150
#	18127
#	43095
#	64877
#	99573
#	189067
#	206822
#	254280
#	279121
#	297831
#
# Disc length: 4228 seconds
#
# Revision: 2
# Processed by: cddbd v1.5.2PL0 Copyright (c) Steve Scherf et al.
# Submitted via: CDex 1.70beta2
#
DISCID=8710820a
DTITLE=Lars Danielson - Mélange Bleu
DYEAR=2006
DGENRE=Jazz
TTITLE0=Melange Bleu
TTITLE1=Makro
TTITLE2=Les Coulisses
TTITLE3=Ironside
TTITLE4=Judas Bolero
TTITLE5=Minor People
TTITLE6=Sketches of Twelve
TTITLE7=Naive
TTITLE8=Bacchanalia
TTITLE9=After Zero
EXTD=YEAR: 2006
EXTT0=
EXTT1=
EXTT2=
EXTT3=
EXTT4=
EXTT5=
EXTT6=
EXTT7=
EXTT8=
EXTT9=
PLAYORDER=
